<svg xmlns="http://www.w3.org/2000/svg" viewBox="0 0 128 96" width="128" height="96" role="img" aria-label="Danio">
  <defs>
    <linearGradient id="danioBody" x1="0" y1="0" x2="0" y2="1">
      <stop offset="0" stop-color="#2F81F2"/>
      <stop offset="1" stop-color="#0E4EAF"/>
    </linearGradient>
    <clipPath id="danioClip">
      <path d="M104 48 C92 30 58 26 30 32 C22 38 22 58 30 64 C58 70 92 66 104 48 Z"/>
    </clipPath>
  </defs>
  <path d="M30 40 L4 28 C16 40 16 56 4 68 L30 56 Z" fill="#0E4EAF"/>
  <path d="M50 31 C56 18 66 18 74 31 Z" fill="#F4B740"/>
  <path d="M52 65 C58 77 66 77 72 65 Z" fill="#1B6EF3"/>
  <path d="M104 48 C92 30 58 26 30 32 C22 38 22 58 30 64 C58 70 92 66 104 48 Z" fill="url(#danioBody)"/>
  <g clip-path="url(#danioClip)" fill="#EAF2FF" opacity="0.85">
    <rect x="22" y="38.4" width="86" height="3.4" rx="1.7"/>
    <rect x="18" y="46.3" width="92" height="3.4" rx="1.7"/>
    <rect x="22" y="54.2" width="86" height="3.4" rx="1.7"/>
  </g>
  <circle cx="90" cy="44" r="6.2" fill="#fff"/>
  <circle cx="91.4" cy="44" r="3.1" fill="#10151C"/>
  <circle cx="89.5" cy="42.3" r="1.25" fill="#fff"/>
  <circle cx="112" cy="38" r="3" fill="#F4B740"/>
  <circle cx="119" cy="31" r="1.8" fill="#F4B740" opacity="0.7"/>
</svg>
